<svg width="208" height="32" viewBox="0 0 208 32" fill="none" xmlns="http://www.w3.org/2000/svg">
<path fill-rule="evenodd" clip-rule="evenodd" d="M152.74 5.47731C153.94 5.47731 154.973 5.67731 155.839 6.07198C156.597 6.41865 157.328 6.92531 158.033 7.58931L158.333 7.88265L155.9 9.55998L155.639 9.33198C155.335 9.06983 155.003 8.84097 154.651 8.64931C154.137 8.38131 153.5 8.24665 152.74 8.24665C152.153 8.24665 151.601 8.35331 151.084 8.56665C150.567 8.77998 150.129 9.07998 149.772 9.46798C149.505 9.76398 149.305 10.056 149.168 10.3426C149.029 10.6293 148.915 11.012 148.823 11.4893C148.722 12.0488 148.66 12.6146 148.637 13.1826C148.605 13.8346 148.591 14.7026 148.591 15.7853C148.591 17.812 148.665 19.236 148.817 20.0546C148.968 20.8733 149.287 21.5573 149.772 22.1026C150.129 22.4826 150.567 22.7813 151.084 22.9986C151.601 23.216 152.153 23.324 152.74 23.324C153.5 23.324 154.137 23.1906 154.651 22.9213C154.968 22.7546 155.301 22.524 155.651 22.228L155.916 21.996L158.333 23.6893C157.848 24.1826 157.325 24.6133 156.767 24.9826C156.208 25.3493 155.603 25.6266 154.953 25.8133C154.304 26 153.565 26.0933 152.74 26.0933C152.044 26.0933 151.387 26.0106 150.768 25.8493C150.143 25.6846 149.544 25.4342 148.988 25.1053C148.436 24.7834 147.928 24.3908 147.477 23.9373C146.853 23.288 146.405 22.5973 146.131 21.864C145.848 21.0972 145.677 20.2939 145.621 19.4786C145.554 18.4058 145.523 17.331 145.527 16.256V15.336C145.529 14.312 145.545 13.4826 145.573 12.8506C145.605 12.1266 145.679 11.464 145.793 10.8613C145.908 10.2586 146.096 9.69598 146.357 9.17065C146.617 8.64798 146.991 8.13465 147.477 7.63465C148.153 6.94388 148.962 6.39731 149.855 6.02798C150.771 5.6562 151.751 5.46907 152.74 5.47731V5.47731ZM178.876 5.55598V18.8506C178.876 19.7413 179.045 20.5173 179.385 21.18C179.724 21.844 180.205 22.3533 180.829 22.7106C181.452 23.0666 182.181 23.2453 183.016 23.2453C183.849 23.2453 184.58 23.0666 185.208 22.7106C185.836 22.3533 186.323 21.8453 186.667 21.188C187.009 20.5293 187.181 19.7506 187.181 18.8506V5.55598H190.221V19C190.221 20.3733 189.909 21.5933 189.285 22.6613C188.661 23.7293 187.803 24.5546 186.708 25.1386C185.612 25.7226 184.381 26.016 183.015 26.016C181.659 26.016 180.435 25.7226 179.344 25.1386C178.271 24.5715 177.379 23.7128 176.772 22.6613C176.148 21.5946 175.837 20.3746 175.837 19V5.55598H178.876ZM164.137 5.55598V23.2226H173.871V26.016H161.045V5.55598H164.137ZM111.141 5.55598V10.032H102.365V13.456H109.867V17.932H102.367V21.5386H111.143V26.016H97.4027V5.55598H111.141ZM80.7854 5.55598L85.3187 14.5786L89.8667 5.55598H94.7467V26.016H89.784V16.22L86.9133 21.2733H83.7387L80.8694 16.22V26.016H75.9054V5.55598H80.7854ZM67.9254 5.55598L75.272 26.016H70.088L69.1454 22.9706H62.92L61.936 26.016H56.736L64.0854 5.55598H67.9254ZM49.1254 5.55598C50.5414 5.55598 51.6974 5.73998 52.592 6.10798C53.4854 6.47598 54.3787 7.12131 55.2694 8.04131L51.3347 10.812L51.1414 10.6533C50.9712 10.5152 50.7896 10.3916 50.5987 10.284C50.2027 10.068 49.7094 9.95998 49.1187 9.95998C48.2814 9.95998 47.6414 10.2533 47.1947 10.844C47.0186 11.08 46.883 11.3435 46.7934 11.624C46.688 11.9306 46.6094 12.4053 46.5534 13.0453C46.5 13.6853 46.4734 14.5986 46.4734 15.7853V16.172C46.4787 17.172 46.5054 17.96 46.5534 18.532C46.6094 19.1773 46.688 19.656 46.7934 19.968C46.8974 20.2813 47.0307 20.544 47.1947 20.7546C47.632 21.3266 48.2734 21.612 49.1187 21.612C49.6 21.612 49.9934 21.5453 50.2987 21.412C50.6027 21.2786 50.8827 21.0786 51.1374 20.812C51.3827 20.572 51.564 20.2493 51.6827 19.844C51.8014 19.44 51.86 19.0306 51.86 18.616V18.3813H49.1187V14.2533H56.716V16.9733C56.716 18.648 56.572 20.0026 56.2867 21.0386C56.0191 22.0413 55.4952 22.957 54.7667 23.696C53.268 25.2426 51.3867 26.016 49.1254 26.016C46.9174 26.016 45.0787 25.2613 43.6054 23.7506C42.7347 22.868 42.1787 21.864 41.944 20.7426C41.708 19.6186 41.5894 18.192 41.5894 16.4626V15.1093C41.5894 13.3786 41.708 11.9493 41.944 10.8226C42.18 9.69598 42.7347 8.68931 43.6067 7.80665C44.36 7.04265 45.1734 6.47598 46.0454 6.10798C46.9174 5.73998 47.9427 5.55598 49.1254 5.55598V5.55598ZM201.525 5.55598C202.745 5.55598 203.821 5.78265 204.752 6.23598C205.681 6.68931 206.393 7.33998 206.888 8.18665C207.383 9.03331 207.631 10.0226 207.631 11.1546C207.637 11.8219 207.508 12.4834 207.249 13.0986C207.017 13.6606 206.675 14.1709 206.244 14.6C205.861 14.985 205.404 15.2881 204.9 15.4906C205.768 15.8266 206.493 16.4026 207.076 17.2173C207.659 18.0306 207.949 19.036 207.949 20.2333C207.949 21.4693 207.692 22.5186 207.179 23.384C206.673 24.2427 205.918 24.9275 205.015 25.348C204.085 25.7933 203.023 26.0146 201.829 26.0146H193.643V5.55598H201.525ZM136.856 5.55598C138.32 5.55598 139.6 5.74665 140.696 6.12931C141.669 6.46798 142.535 6.98798 143.289 7.68665L143.567 7.95865L139.887 10.5493C139.572 10.3311 139.219 10.1733 138.847 10.084C138.257 9.94531 137.548 9.87731 136.72 9.87731C135.939 9.87731 135.343 10.0653 134.933 10.4426C134.524 10.82 134.32 11.2533 134.32 11.74C134.32 12.1 134.452 12.412 134.715 12.6786C134.98 12.948 135.352 13.132 135.831 13.2306L136.079 13.2733L138.479 13.604C140.225 13.8626 141.531 14.4186 142.395 15.2746C142.912 15.7813 143.288 16.3946 143.519 17.1173C143.751 17.84 143.867 18.6986 143.867 19.692C143.867 21.0093 143.524 22.1453 142.837 23.1013C142.151 24.06 141.224 24.7853 140.055 25.276C138.887 25.7693 137.597 26.0146 136.188 26.0146C134.543 26.0146 133.111 25.8173 131.892 25.4213C130.799 25.0642 129.8 24.469 128.965 23.6786L128.645 23.3653L132.416 20.7013C132.792 20.9426 133.227 21.1333 133.72 21.2733C134.52 21.5 135.352 21.6106 136.216 21.6106C138.116 21.6106 139.067 21.0093 139.067 19.8026C139.067 19.288 138.933 18.892 138.671 18.616C138.444 18.3786 138.092 18.2133 137.612 18.1186L137.361 18.0773L134.961 17.732C133.197 17.484 131.865 16.8893 130.964 15.9506C130.055 15.004 129.6 13.6546 129.6 11.9066C129.6 10.6826 129.893 9.58931 130.48 8.62665C131.067 7.66665 131.907 6.91331 133.004 6.37065C134.099 5.82798 135.384 5.55598 136.857 5.55598H136.856ZM121.249 5.55598C122.699 5.55598 123.941 5.86265 124.975 6.47598C126.009 7.08798 126.796 7.89465 127.336 8.89598C127.877 9.89598 128.147 10.976 128.147 12.136C128.147 13.4186 127.827 14.516 127.187 15.428C126.547 16.34 125.769 17.0253 124.856 17.484L129.215 26.0146H123.475L119.888 18.396H118.207V26.0146H113.243V5.55598H121.249ZM201.559 16.992H196.733V23.2226H201.559C202.252 23.2226 202.848 23.0893 203.347 22.8226C203.845 22.556 204.224 22.1893 204.484 21.7213C204.743 21.2546 204.871 20.7106 204.871 20.0946C204.871 19.468 204.743 18.924 204.484 18.4653C204.218 18.0002 203.82 17.6244 203.34 17.3853C202.836 17.124 202.243 16.992 201.559 16.992ZM66.1374 13.316L64.32 18.7733H67.84L66.1374 13.316ZM201.267 8.34665H196.733V14.1986H201.267C202.284 14.1986 203.088 13.9413 203.68 13.428C204.271 12.916 204.567 12.196 204.567 11.272C204.567 10.6666 204.431 10.1413 204.157 9.69865C203.885 9.25419 203.484 8.90241 203.008 8.68931C202.512 8.46265 201.933 8.34665 201.267 8.34665V8.34665ZM121.029 10.0746H118.207V14.2H121.029C121.464 14.2 121.847 14.104 122.176 13.9133C122.491 13.7358 122.751 13.4746 122.927 13.1586C123.097 12.8453 123.184 12.508 123.184 12.144C123.184 11.78 123.097 11.44 122.927 11.124C122.753 10.8044 122.493 10.5401 122.176 10.3613C121.826 10.1646 121.43 10.0656 121.029 10.0746V10.0746Z" fill="#FFFFFE"/>
<path fill-rule="evenodd" clip-rule="evenodd" d="M30.0053 9.73596L15.8279 19.7226H24.0826C22.6079 22.9746 19.3626 25.232 15.5959 25.232C13.7164 25.2346 11.8809 24.6624 10.3359 23.592L4.98926 27.3573C7.85694 30.0649 11.652 31.5724 15.5959 31.5706C24.2093 31.5706 31.1919 24.504 31.1919 15.784C31.1919 13.6413 30.7706 11.5973 30.0053 9.73596" fill="#308CF4"/>
<path fill-rule="evenodd" clip-rule="evenodd" d="M28.3707 6.728L23.2307 10.348C21.5414 7.92133 18.752 6.33733 15.596 6.33733C10.4414 6.33733 6.26271 10.5667 6.26271 15.784C6.26271 17.7747 6.86937 19.62 7.90804 21.1413L2.76804 24.7613C0.958119 22.118 -0.00707136 18.9876 3.90044e-05 15.784C3.90044e-05 7.06667 6.98404 0 15.596 0C20.88 0 25.5507 2.65867 28.3694 6.728" fill="#FFFFFE"/>
</svg>
